<svg xmlns="http://www.w3.org/2000/svg" viewBox="0 0 15 10"><g><g><path fill="#1f2029" d="M10.717 3.47a1.51 1.51 0 0 1 1.509 1.509 1.51 1.51 0 0 1-1.509 1.508A1.51 1.51 0 0 1 9.21 4.979a1.51 1.51 0 0 1 1.508-1.508zM5.36 7.336V6.332h1.003V5.07c0-.653.145-1.273.403-1.83l-.734-.344A5.23 5.23 0 0 1 7.838.785l.453.67a4.332 4.332 0 0 1 2.426-.74 4.359 4.359 0 0 1 4.355 4.354v2.479a1.64 1.64 0 0 1-1.639 1.638H5.36V8.183H1.543v1.18H.695V7.335zm5.357 0a2.36 2.36 0 0 0 2.357-2.356 2.36 2.36 0 0 0-2.357-2.356A2.36 2.36 0 0 0 8.36 4.979a2.36 2.36 0 0 0 2.357 2.356z"/></g></g></svg>