<svg xmlns="http://www.w3.org/2000/svg" viewBox="0 0 11 8"><g><g><path fill="#000000" d="M10.151 4.36l-.011 1.483V7.35a.379.379 0 0 1-.382.382.345.345 0 0 1-.213-.067l-1.258-.73c-.012 0-.012-.012-.023-.012l-.303-.18V4.967l.326-.191 1.28-.742a.381.381 0 0 1 .528.135.295.295 0 0 1 .056.19zM.806 1.786a1.808 1.808 0 1 1 3.617 0c0 1-.809 1.81-1.808 1.81-1 0-1.82-.81-1.809-1.81zm1.067 0a.74.74 0 1 0 .741-.742.727.727 0 0 0-.74.742zM7.646 4.45v2.742c0 .494-.404.91-.91.91H2.12a.913.913 0 0 1-.91-.91V4.45c0-.315.18-.607.439-.753.292.157.617.236.966.236a2.1 2.1 0 0 0 1.168-.349h1.28a2.1 2.1 0 0 0 1.168.349c.348 0 .674-.09.966-.236a.914.914 0 0 1 .45.753zM4.423 1.786a1.808 1.808 0 1 1 3.617 0 1.808 1.808 0 1 1-3.617 0zm1.067 0a.74.74 0 1 0 .741-.742.734.734 0 0 0-.741.742z"/></g></g></svg>