<svg xmlns="http://www.w3.org/2000/svg" viewBox="0 0 10 9"><g><g><path fill="#1f2029" d="M9.453 2.75v4.369c0 .344-.122.638-.365.882a1.2 1.2 0 0 1-.882.366H1.348a1.2 1.2 0 0 1-.882-.366 1.203 1.203 0 0 1-.365-.882v-4.37c0-.344.122-.638.365-.882a1.2 1.2 0 0 1 .882-.366h1.09l.25-.663a.907.907 0 0 1 .338-.412.867.867 0 0 1 .504-.173h2.494c.172 0 .34.057.504.173a.907.907 0 0 1 .339.412l.248.663h1.091a1.2 1.2 0 0 1 .882.366c.243.244.365.538.365.882zM6.959 4.933c0-.602-.213-1.116-.64-1.543a2.1 2.1 0 0 0-1.542-.641 2.1 2.1 0 0 0-1.542.64c-.427.428-.64.942-.64 1.544 0 .602.213 1.116.64 1.543a2.1 2.1 0 0 0 1.542.642 2.1 2.1 0 0 0 1.542-.642c.427-.427.64-.941.64-1.543zm-1.19-.992c.274.274.41.605.41.992s-.136.718-.41.992a1.35 1.35 0 0 1-.992.412 1.35 1.35 0 0 1-.991-.412 1.353 1.353 0 0 1-.412-.992c0-.387.137-.718.412-.992a1.35 1.35 0 0 1 .99-.412c.387 0 .718.137.992.412z"/></g></g></svg>