<svg xmlns="http://www.w3.org/2000/svg" viewBox="0 0 11 10"><g><g><path fill="#1f2029" d="M5.15 6.162l1.21 1.22c-.131.519-.379.908-.738 1.156-.303.21-.678.316-1.116.316-.629 0-1.167-.22-1.19-.23a.189.189 0 0 1 .057-.361c.352-.028.412-.249.505-.705.106-.523.25-1.23 1.273-1.396zm4.882-3.085c-.228.335-.568.775-1.01 1.308-.7.845-1.58 1.83-2.334 2.615L5.54 5.841A51.7 51.7 0 0 1 7.995 3.6c1.732-1.476 2.017-1.476 2.124-1.476.092 0 .15.039.182.072.166.167.033.439-.27.882zm-3.204 4.5c.394-.403.834-.875 1.272-1.361a4.54 4.54 0 0 1-1.263 2.338 4.6 4.6 0 0 1-3.262 1.341h-.001c-.679 0-1.505-.238-2.155-.621C.623 8.804.184 8.177.184 7.508c0-.81.455-1.147.82-1.419.299-.221.534-.396.534-.78 0-.383-.236-.558-.534-.78C.638 4.257.183 3.92.183 3.11c0-.67.438-1.297 1.234-1.766.65-.382 1.475-.62 2.154-.62 1.007 0 1.963.316 2.766.914.56.416 1.018.96 1.338 1.574l-.005.004a47.18 47.18 0 0 0-.89.78.64.64 0 0 0-.909-.487.63.63 0 0 0 .142 1.188c-.366.34-.717.677-1.024.983-.536.104-.944.35-1.215.737-.248.353-.329.75-.388 1.04a3.218 3.218 0 0 1-.072.307.688.688 0 0 0-.607.58.69.69 0 0 0 .417.745c.067.028.668.268 1.381.268.542 0 1.014-.136 1.402-.405.445-.308.754-.77.921-1.376zM4.144 3.384a.638.638 0 0 0 .764-.476.637.637 0 1 0-1.244-.282c-.078.34.137.68.48.758zm-1.653.506a.631.631 0 0 0 .101-.89.642.642 0 0 0-.896-.1.63.63 0 0 0-.1.89.64.64 0 0 0 .895.1zm.335 3.977a.63.63 0 0 0-.1-.89.64.64 0 0 0-.897.1.63.63 0 0 0 .101.89.64.64 0 0 0 .896-.1z"/></g></g></svg>